<svg width="46" height="53" viewBox="0 0 46 53" fill="none" xmlns="http://www.w3.org/2000/svg">
<path d="M0 32.2627L14.3799 0H21.7542L36.1803 32.2627H28.3451L16.5461 3.77923H19.4958L7.65075 32.2627H0ZM7.18993 25.3492L9.17176 19.6803H25.7641L27.792 25.3492H7.18993Z" fill="white"/>
<path d="M33.4683 52.7722C31.2866 52.7722 29.2742 52.3729 27.4305 51.574C25.6177 50.7443 24.1274 49.5767 22.9598 48.0712L27.1079 43.0934C27.9989 44.261 28.9361 45.1522 29.9194 45.7667C30.9026 46.3504 31.9626 46.6423 33.0994 46.6423C36.1415 46.6423 37.6625 44.8602 37.6625 41.296V25.9481H26.3243V19.9565H45.0829V40.8812C45.0829 44.8757 44.0995 47.8561 42.133 49.8225C40.1666 51.789 37.2783 52.7722 33.4683 52.7722Z" fill="white"/>
</svg>
