<svg width="119" height="22" viewBox="0 0 119 22" fill="none" xmlns="http://www.w3.org/2000/svg">
<g clip-path="url(#clip0_162_44)">
<path d="M113 0H6C2.68629 0 0 2.68629 0 6V16C0 19.3137 2.68629 22 6 22H113C116.314 22 119 19.3137 119 16V6C119 2.68629 116.314 0 113 0Z" fill="#693B93"/>
<path d="M112 1H7C3.68629 1 1 3.68629 1 7V15C1 18.3137 3.68629 21 7 21H112C115.314 21 118 18.3137 118 15V7C118 3.68629 115.314 1 112 1Z" fill="#5C5959"/>
<path d="M73 1H108C111.738 1 113.608 1 115 1.80385C115.912 2.33046 116.67 3.08788 117.196 4C118 5.3923 118 7.26154 118 11C118 14.7385 118 16.6077 117.196 18C116.67 18.9121 115.912 19.6695 115 20.1962C113.608 21 111.738 21 108 21H73V1Z" fill="black"/>
<path d="M82.6648 9.78881C82.6219 9.63009 82.559 9.49027 82.4758 9.36934C82.3927 9.24589 82.2907 9.14134 82.1697 9.05569C82.0488 8.97003 81.9102 8.90579 81.754 8.86296C81.5978 8.81761 81.4265 8.79494 81.2401 8.79494C80.8647 8.79494 80.5397 8.88563 80.2651 9.06702C79.993 9.24841 79.7827 9.51294 79.634 9.86061C79.4854 10.2058 79.4111 10.6252 79.4111 11.119C79.4111 11.6153 79.4829 12.0386 79.6265 12.3887C79.7701 12.7389 79.9779 13.006 80.25 13.1899C80.5221 13.3738 80.8521 13.4657 81.2401 13.4657C81.5827 13.4657 81.8724 13.4103 82.1093 13.2995C82.3486 13.1861 82.53 13.0261 82.6534 12.8195C82.7769 12.613 82.8386 12.3698 82.8386 12.0902L83.1863 12.1318H81.3043V10.7676H84.6412V11.7917C84.6412 12.4845 84.4938 13.0778 84.199 13.5716C83.9068 14.0653 83.5037 14.4445 82.9898 14.709C82.4783 14.9735 81.8901 15.1058 81.225 15.1058C80.4868 15.1058 79.8381 14.9458 79.2788 14.6259C78.7195 14.3059 78.2837 13.8499 77.9713 13.2579C77.6589 12.6633 77.5027 11.9579 77.5027 11.1417C77.5027 10.5068 77.5972 9.94374 77.7861 9.45248C77.9751 8.95869 78.2383 8.54049 78.5759 8.19786C78.916 7.85523 79.309 7.59575 79.755 7.41939C80.2034 7.24304 80.6859 7.15487 81.2023 7.15487C81.6507 7.15487 82.0677 7.21911 82.4531 7.34759C82.8411 7.47608 83.1837 7.65747 83.481 7.89177C83.7808 8.12606 84.0239 8.40444 84.2104 8.72692C84.3968 9.04939 84.5127 9.40335 84.558 9.78881H82.6648ZM86.1074 15V9.19551H87.9553V15H86.1074ZM87.0333 8.51907C86.7738 8.51907 86.5508 8.43342 86.3644 8.2621C86.1779 8.08827 86.0847 7.87917 86.0847 7.6348C86.0847 7.39294 86.1779 7.18636 86.3644 7.01504C86.5508 6.84121 86.7738 6.7543 87.0333 6.7543C87.2953 6.7543 87.5182 6.84121 87.7021 7.01504C87.8886 7.18636 87.9818 7.39294 87.9818 7.6348C87.9818 7.87917 87.8886 8.08827 87.7021 8.2621C87.5182 8.43342 87.2953 8.51907 87.0333 8.51907ZM92.4079 9.19551V10.5559H88.7461V9.19551H92.4079ZM89.5132 7.80485H91.3611V13.1748C91.3611 13.2881 91.3788 13.3801 91.414 13.4506C91.4518 13.5186 91.506 13.5678 91.5765 13.598C91.6471 13.6257 91.7315 13.6396 91.8297 13.6396C91.9002 13.6396 91.9746 13.6333 92.0527 13.6207C92.1333 13.6056 92.1937 13.593 92.2341 13.5829L92.5137 14.9169C92.4255 14.9421 92.3008 14.9735 92.1396 15.0113C91.9809 15.0491 91.7907 15.0731 91.569 15.0831C91.1356 15.1033 90.764 15.0529 90.4542 14.932C90.1468 14.8085 89.9113 14.6171 89.7475 14.3576C89.5863 14.0981 89.5082 13.7718 89.5132 13.3788V7.80485ZM93.4754 15V7.26068H95.346V10.367H98.3957V7.26068H100.262V15H98.3957V11.8899H95.346V15H93.4754ZM105.181 12.4945V9.19551H107.025V15H105.264V13.9192H105.203C105.075 14.2744 104.856 14.5566 104.546 14.7657C104.238 14.9723 103.867 15.0756 103.431 15.0756C103.036 15.0756 102.688 14.9849 102.388 14.8035C102.088 14.6221 101.855 14.3689 101.689 14.0439C101.523 13.7164 101.438 13.3335 101.436 12.8951V9.19551H103.284V12.5323C103.286 12.8472 103.369 13.0954 103.533 13.2768C103.697 13.4582 103.92 13.5489 104.202 13.5489C104.386 13.5489 104.551 13.5086 104.697 13.428C104.846 13.3448 104.963 13.2251 105.048 13.0689C105.137 12.9102 105.181 12.7188 105.181 12.4945ZM108.201 15V7.26068H110.049V10.1894H110.087C110.162 10.013 110.269 9.84297 110.408 9.67922C110.549 9.51546 110.728 9.38194 110.945 9.27865C111.164 9.17283 111.426 9.11993 111.731 9.11993C112.134 9.11993 112.51 9.22574 112.86 9.43736C113.213 9.64898 113.498 9.97523 113.715 10.4161C113.931 10.857 114.04 11.4188 114.04 12.1015C114.04 12.7591 113.935 13.3095 113.726 13.7529C113.519 14.1963 113.24 14.5289 112.887 14.7506C112.537 14.9723 112.148 15.0831 111.719 15.0831C111.427 15.0831 111.174 15.0353 110.96 14.9395C110.746 14.8438 110.565 14.7178 110.419 14.5616C110.276 14.4054 110.165 14.2379 110.087 14.059H110.03V15H108.201ZM110.011 12.0978C110.011 12.4101 110.053 12.6822 110.136 12.914C110.222 13.1458 110.344 13.3259 110.502 13.4544C110.664 13.5804 110.856 13.6434 111.081 13.6434C111.307 13.6434 111.5 13.5804 111.659 13.4544C111.818 13.3259 111.937 13.1458 112.018 12.914C112.101 12.6822 112.142 12.4101 112.142 12.0978C112.142 11.7854 112.101 11.5145 112.018 11.2853C111.937 11.056 111.818 10.8784 111.659 10.7524C111.503 10.6265 111.31 10.5635 111.081 10.5635C110.854 10.5635 110.661 10.6252 110.502 10.7487C110.344 10.8721 110.222 11.0485 110.136 11.2777C110.053 11.507 110.011 11.7803 110.011 12.0978Z" fill="#693B93"/>
<g filter="url(#filter0_dii_162_44)">
<path d="M24.3795 6.49091L26.9056 13.6538H27.0054L29.5315 6.49091H30.6118L27.4873 15H26.4237L23.2993 6.49091H24.3795ZM31.8042 15V8.61818H32.7847V15H31.8042ZM32.3028 7.55455C32.1116 7.55455 31.9468 7.48945 31.8083 7.35927C31.6726 7.22908 31.6048 7.07259 31.6048 6.88977C31.6048 6.70696 31.6726 6.55046 31.8083 6.42028C31.9468 6.29009 32.1116 6.225 32.3028 6.225C32.4939 6.225 32.6573 6.29009 32.793 6.42028C32.9315 6.55046 33.0008 6.70696 33.0008 6.88977C33.0008 7.07259 32.9315 7.22908 32.793 7.35927C32.6573 7.48945 32.4939 7.55455 32.3028 7.55455ZM37.2564 15.133C36.6414 15.133 36.111 14.9972 35.6651 14.7258C35.2219 14.4516 34.8798 14.0693 34.6388 13.579C34.4006 13.086 34.2815 12.5126 34.2815 11.8589C34.2815 11.2053 34.4006 10.6291 34.6388 10.1305C34.8798 9.62919 35.215 9.23864 35.6443 8.95888C36.0764 8.67635 36.5805 8.53509 37.1566 8.53509C37.489 8.53509 37.8173 8.59048 38.1413 8.70128C38.4654 8.81207 38.7604 8.99212 39.0263 9.24141C39.2922 9.48793 39.5041 9.81477 39.662 10.2219C39.8199 10.6291 39.8988 11.1305 39.8988 11.726V12.1415H34.9795V11.2939H38.9017C38.9017 10.9338 38.8297 10.6125 38.6856 10.33C38.5444 10.0474 38.3422 9.82447 38.079 9.66104C37.8186 9.49762 37.5112 9.41591 37.1566 9.41591C36.7661 9.41591 36.4282 9.51286 36.1429 9.70675C35.8603 9.89787 35.6429 10.1472 35.4906 10.4546C35.3382 10.7621 35.262 11.0917 35.262 11.4435V12.0085C35.262 12.4905 35.3451 12.899 35.5113 13.2342C35.6803 13.5666 35.9144 13.82 36.2135 13.9945C36.5126 14.1663 36.8603 14.2521 37.2564 14.2521C37.514 14.2521 37.7466 14.2161 37.9544 14.1441C38.1649 14.0693 38.3463 13.9585 38.4987 13.8117C38.651 13.6621 38.7687 13.4766 38.8518 13.255L39.7991 13.5209C39.6994 13.8422 39.5318 14.1247 39.2964 14.3685C39.0609 14.6094 38.7701 14.7978 38.4239 14.9335C38.0776 15.0665 37.6885 15.133 37.2564 15.133ZM42.8363 15L40.8918 8.61818H41.9222L43.3016 13.5043H43.3681L44.7309 8.61818H45.7779L47.1241 13.4876H47.1906L48.57 8.61818H49.6004L47.6559 15H46.692L45.296 10.0973H45.1962L43.8002 15H42.8363ZM56.7799 15.133C56.2038 15.133 55.6983 14.9958 55.2634 14.7216C54.8313 14.4474 54.4934 14.0638 54.2496 13.5707C54.0086 13.0777 53.8881 12.5016 53.8881 11.8423C53.8881 11.1776 54.0086 10.5973 54.2496 10.1015C54.4934 9.60565 54.8313 9.22063 55.2634 8.94641C55.6983 8.67219 56.2038 8.53509 56.7799 8.53509C57.356 8.53509 57.8602 8.67219 58.2923 8.94641C58.7271 9.22063 59.0651 9.60565 59.306 10.1015C59.5498 10.5973 59.6717 11.1776 59.6717 11.8423C59.6717 12.5016 59.5498 13.0777 59.306 13.5707C59.0651 14.0638 58.7271 14.4474 58.2923 14.7216C57.8602 14.9958 57.356 15.133 56.7799 15.133ZM56.7799 14.2521C57.2175 14.2521 57.5776 14.14 57.8602 13.9156C58.1427 13.6912 58.3518 13.3962 58.4875 13.0306C58.6233 12.665 58.6911 12.2689 58.6911 11.8423C58.6911 11.4158 58.6233 11.0183 58.4875 10.6499C58.3518 10.2815 58.1427 9.98374 57.8602 9.7566C57.5776 9.52947 57.2175 9.41591 56.7799 9.41591C56.3423 9.41591 55.9822 9.52947 55.6997 9.7566C55.4171 9.98374 55.208 10.2815 55.0723 10.6499C54.9365 11.0183 54.8687 11.4158 54.8687 11.8423C54.8687 12.2689 54.9365 12.665 55.0723 13.0306C55.208 13.3962 55.4171 13.6912 55.6997 13.9156C55.9822 14.14 56.3423 14.2521 56.7799 14.2521ZM62.149 11.1609V15H61.1684V8.61818H62.1157V9.61534H62.1988C62.3484 9.29126 62.5755 9.0309 62.8802 8.83423C63.1849 8.6348 63.5782 8.53509 64.0602 8.53509C64.4923 8.53509 64.8704 8.62372 65.1945 8.80099C65.5186 8.9755 65.7706 9.24141 65.9507 9.59872C66.1307 9.95327 66.2207 10.402 66.2207 10.9449V15H65.2402V11.0114C65.2402 10.51 65.11 10.1195 64.8496 9.8397C64.5893 9.55717 64.2319 9.41591 63.7777 9.41591C63.4647 9.41591 63.1849 9.48377 62.9384 9.6195C62.6947 9.75522 62.5021 9.95327 62.3609 10.2136C62.2196 10.474 62.149 10.7898 62.149 11.1609Z" fill="white"/>
</g>
<g filter="url(#filter1_diii_162_44)">
<path d="M9.68266 15.2728C9.68266 15.3307 9.61775 15.377 9.53589 15.377C9.44275 15.3857 9.37783 15.3394 9.37783 15.2728C9.37783 15.2149 9.44275 15.1686 9.5246 15.1686C9.60928 15.1599 9.68266 15.2062 9.68266 15.2728ZM8.80484 15.1425C8.78508 15.2004 8.84154 15.267 8.92621 15.2844C8.9996 15.3133 9.08428 15.2844 9.10121 15.2265C9.11815 15.1686 9.06452 15.102 8.97984 15.0759C8.90646 15.0557 8.8246 15.0846 8.80484 15.1425ZM10.0524 15.0933C9.97057 15.1136 9.91412 15.1686 9.92258 15.2351C9.93105 15.293 10.0044 15.3307 10.0891 15.3104C10.171 15.2901 10.2274 15.2351 10.219 15.1772C10.2105 15.1222 10.1343 15.0846 10.0524 15.0933ZM11.9097 4C7.99476 4 5 7.04834 5 11.0636C5 14.274 6.97017 17.0213 9.78428 17.9882C10.1456 18.0548 10.2726 17.8261 10.2726 17.6379C10.2726 17.4584 10.2641 16.4684 10.2641 15.8604C10.2641 15.8604 8.28831 16.2947 7.87339 14.9978C7.87339 14.9978 7.55162 14.1553 7.08871 13.9382C7.08871 13.9382 6.44234 13.4837 7.13387 13.4924C7.13387 13.4924 7.8367 13.5503 8.22339 14.2393C8.84154 15.3567 9.87742 15.0354 10.2811 14.8443C10.346 14.3811 10.5294 14.0598 10.7327 13.8687C9.15484 13.6893 7.56291 13.4548 7.56291 10.6699C7.56291 9.87377 7.77742 9.47427 8.22904 8.96477C8.15565 8.7766 7.91573 8.00077 8.30242 6.99913C8.89234 6.81096 10.25 7.78075 10.25 7.78075C10.8145 7.61864 11.4214 7.53469 12.0226 7.53469C12.6238 7.53469 13.2306 7.61864 13.7952 7.78075C13.7952 7.78075 15.1528 6.80806 15.7427 6.99913C16.1294 8.00366 15.8895 8.7766 15.8161 8.96477C16.2677 9.47717 16.5444 9.87667 16.5444 10.6699C16.5444 13.4635 14.8819 13.6864 13.304 13.8687C13.5637 14.0974 13.7839 14.5317 13.7839 15.212C13.7839 16.1876 13.7754 17.3947 13.7754 17.6321C13.7754 17.8203 13.9052 18.049 14.2637 17.9824C17.0863 17.0213 19 14.274 19 11.0636C19 7.04834 15.8246 4 11.9097 4ZM7.74355 13.9845C7.70686 14.0135 7.71533 14.0801 7.76331 14.1351C7.80847 14.1814 7.87339 14.2017 7.91008 14.164C7.94678 14.1351 7.93831 14.0685 7.89033 14.0135C7.84516 13.9672 7.78025 13.9469 7.74355 13.9845ZM7.43871 13.7501C7.41896 13.7877 7.44718 13.834 7.50363 13.863C7.54879 13.8919 7.60525 13.8832 7.625 13.8427C7.64476 13.8051 7.61654 13.7587 7.56008 13.7298C7.50363 13.7124 7.45847 13.7211 7.43871 13.7501ZM8.35323 14.7806C8.30807 14.8183 8.325 14.9051 8.38992 14.9601C8.45484 15.0267 8.5367 15.0354 8.57339 14.9891C8.61008 14.9514 8.59315 14.8646 8.5367 14.8096C8.4746 14.743 8.38992 14.7343 8.35323 14.7806ZM8.03146 14.3551C7.98629 14.384 7.98629 14.4593 8.03146 14.5259C8.07662 14.5925 8.15283 14.6214 8.18952 14.5925C8.23468 14.5548 8.23468 14.4796 8.18952 14.413C8.15 14.3464 8.07662 14.3175 8.03146 14.3551Z" fill="white"/>
</g>
</g>
<defs>
<filter id="filter0_dii_162_44" x="19.2993" y="6.225" width="50.9214" height="16.908" filterUnits="userSpaceOnUse" color-interpolation-filters="sRGB">
<feFlood flood-opacity="0" result="BackgroundImageFix"/>
<feColorMatrix in="SourceAlpha" type="matrix" values="0 0 0 0 0 0 0 0 0 0 0 0 0 0 0 0 0 0 127 0" result="hardAlpha"/>
<feOffset dy="4"/>
<feGaussianBlur stdDeviation="2"/>
<feComposite in2="hardAlpha" operator="out"/>
<feColorMatrix type="matrix" values="0 0 0 0 0 0 0 0 0 0 0 0 0 0 0 0 0 0 0.25 0"/>
<feBlend mode="normal" in2="BackgroundImageFix" result="effect1_dropShadow_162_44"/>
<feBlend mode="normal" in="SourceGraphic" in2="effect1_dropShadow_162_44" result="shape"/>
<feColorMatrix in="SourceAlpha" type="matrix" values="0 0 0 0 0 0 0 0 0 0 0 0 0 0 0 0 0 0 127 0" result="hardAlpha"/>
<feOffset dy="4"/>
<feGaussianBlur stdDeviation="2"/>
<feComposite in2="hardAlpha" operator="arithmetic" k2="-1" k3="1"/>
<feColorMatrix type="matrix" values="0 0 0 0 0 0 0 0 0 0 0 0 0 0 0 0 0 0 0.25 0"/>
<feBlend mode="normal" in2="shape" result="effect2_innerShadow_162_44"/>
<feColorMatrix in="SourceAlpha" type="matrix" values="0 0 0 0 0 0 0 0 0 0 0 0 0 0 0 0 0 0 127 0" result="hardAlpha"/>
<feOffset dy="4"/>
<feGaussianBlur stdDeviation="2"/>
<feComposite in2="hardAlpha" operator="arithmetic" k2="-1" k3="1"/>
<feColorMatrix type="matrix" values="0 0 0 0 0 0 0 0 0 0 0 0 0 0 0 0 0 0 0.25 0"/>
<feBlend mode="normal" in2="effect2_innerShadow_162_44" result="effect3_innerShadow_162_44"/>
</filter>
<filter id="filter1_diii_162_44" x="1" y="4" width="22" height="22" filterUnits="userSpaceOnUse" color-interpolation-filters="sRGB">
<feFlood flood-opacity="0" result="BackgroundImageFix"/>
<feColorMatrix in="SourceAlpha" type="matrix" values="0 0 0 0 0 0 0 0 0 0 0 0 0 0 0 0 0 0 127 0" result="hardAlpha"/>
<feOffset dy="4"/>
<feGaussianBlur stdDeviation="2"/>
<feComposite in2="hardAlpha" operator="out"/>
<feColorMatrix type="matrix" values="0 0 0 0 0 0 0 0 0 0 0 0 0 0 0 0 0 0 0.25 0"/>
<feBlend mode="normal" in2="BackgroundImageFix" result="effect1_dropShadow_162_44"/>
<feBlend mode="normal" in="SourceGraphic" in2="effect1_dropShadow_162_44" result="shape"/>
<feColorMatrix in="SourceAlpha" type="matrix" values="0 0 0 0 0 0 0 0 0 0 0 0 0 0 0 0 0 0 127 0" result="hardAlpha"/>
<feOffset dy="4"/>
<feGaussianBlur stdDeviation="2"/>
<feComposite in2="hardAlpha" operator="arithmetic" k2="-1" k3="1"/>
<feColorMatrix type="matrix" values="0 0 0 0 0 0 0 0 0 0 0 0 0 0 0 0 0 0 0.25 0"/>
<feBlend mode="normal" in2="shape" result="effect2_innerShadow_162_44"/>
<feColorMatrix in="SourceAlpha" type="matrix" values="0 0 0 0 0 0 0 0 0 0 0 0 0 0 0 0 0 0 127 0" result="hardAlpha"/>
<feOffset dy="4"/>
<feGaussianBlur stdDeviation="2"/>
<feComposite in2="hardAlpha" operator="arithmetic" k2="-1" k3="1"/>
<feColorMatrix type="matrix" values="0 0 0 0 0 0 0 0 0 0 0 0 0 0 0 0 0 0 0.25 0"/>
<feBlend mode="normal" in2="effect2_innerShadow_162_44" result="effect3_innerShadow_162_44"/>
<feColorMatrix in="SourceAlpha" type="matrix" values="0 0 0 0 0 0 0 0 0 0 0 0 0 0 0 0 0 0 127 0" result="hardAlpha"/>
<feOffset dy="4"/>
<feGaussianBlur stdDeviation="2"/>
<feComposite in2="hardAlpha" operator="arithmetic" k2="-1" k3="1"/>
<feColorMatrix type="matrix" values="0 0 0 0 0 0 0 0 0 0 0 0 0 0 0 0 0 0 0.25 0"/>
<feBlend mode="normal" in2="effect3_innerShadow_162_44" result="effect4_innerShadow_162_44"/>
</filter>
<clipPath id="clip0_162_44">
<rect width="119" height="22" fill="white"/>
</clipPath>
</defs>
</svg>
