<svg width="208" height="232" viewBox="0 0 208 232" fill="none" xmlns="http://www.w3.org/2000/svg">
<path d="M37 133.746L79.7413 37.8516H101.66L144.539 133.746H121.25L86.1801 49.0846H94.9475L59.7404 133.746H37ZM58.3706 113.197L64.2612 96.3472H113.579L119.606 113.197H58.3706Z" fill="#1A0B2E"/>
<path d="M136.478 194.707C129.993 194.707 124.012 193.52 118.532 191.145C113.143 188.679 108.714 185.209 105.244 180.734L117.573 165.938C120.221 169.409 123.007 172.058 125.93 173.884C128.852 175.619 132.003 176.487 135.382 176.487C144.423 176.487 148.944 171.19 148.944 160.596V114.977H115.244V97.1685H171V159.363C171 171.236 168.077 180.095 162.232 185.939C156.387 191.784 147.802 194.707 136.478 194.707Z" fill="#1A0B2E"/>
<g filter="url(#filter0_d_132_54)">
<path d="M37 133.89L79.7413 37.9958H101.66L144.539 133.89H121.25L86.1801 49.2289H94.9475L59.7404 133.89H37ZM58.3706 113.341L64.2612 96.4915H113.579L119.606 113.341H58.3706Z" fill="white"/>
<path d="M136.478 194.851C129.993 194.851 124.012 193.664 118.532 191.289C113.143 188.823 108.714 185.353 105.244 180.878L117.573 166.082C120.221 169.553 123.007 172.202 125.93 174.028C128.852 175.763 132.003 176.631 135.382 176.631C144.423 176.631 148.944 171.334 148.944 160.74V115.121H115.244V97.3127H171V159.507C171 171.38 168.077 180.239 162.232 186.083C156.387 191.929 147.802 194.851 136.478 194.851Z" fill="white"/>
</g>
<g filter="url(#filter1_d_132_54)">
<path d="M37 133.156L79.7413 37.2617H101.66L144.539 133.156H121.25L86.1801 48.4947H94.9475L59.7404 133.156H37ZM58.3706 112.607L64.2612 95.7574H113.579L119.606 112.607H58.3706Z" fill="white"/>
<path d="M136.478 194.117C129.993 194.117 124.012 192.93 118.532 190.555C113.143 188.089 108.714 184.619 105.244 180.144L117.573 165.348C120.221 168.819 123.007 171.468 125.93 173.294C128.852 175.029 132.003 175.897 135.382 175.897C144.423 175.897 148.944 170.6 148.944 160.006V114.387H115.244V96.5786H171V158.773C171 170.646 168.077 179.505 162.232 185.349C156.387 191.194 147.802 194.117 136.478 194.117Z" fill="white"/>
</g>
<defs>
<filter id="filter0_d_132_54" x="0.287727" y="1.28358" width="207.425" height="230.28" filterUnits="userSpaceOnUse" color-interpolation-filters="sRGB">
<feFlood flood-opacity="0" result="BackgroundImageFix"/>
<feColorMatrix in="SourceAlpha" type="matrix" values="0 0 0 0 0 0 0 0 0 0 0 0 0 0 0 0 0 0 127 0" result="hardAlpha"/>
<feOffset/>
<feGaussianBlur stdDeviation="18.3561"/>
<feColorMatrix type="matrix" values="0 0 0 0 0.101961 0 0 0 0 0.0431373 0 0 0 0 0.180392 0 0 0 1 0"/>
<feBlend mode="normal" in2="BackgroundImageFix" result="effect1_dropShadow_132_54"/>
<feBlend mode="normal" in="SourceGraphic" in2="effect1_dropShadow_132_54" result="shape"/>
</filter>
<filter id="filter1_d_132_54" x="0.287727" y="0.549446" width="207.425" height="230.28" filterUnits="userSpaceOnUse" color-interpolation-filters="sRGB">
<feFlood flood-opacity="0" result="BackgroundImageFix"/>
<feColorMatrix in="SourceAlpha" type="matrix" values="0 0 0 0 0 0 0 0 0 0 0 0 0 0 0 0 0 0 127 0" result="hardAlpha"/>
<feOffset/>
<feGaussianBlur stdDeviation="18.3561"/>
<feColorMatrix type="matrix" values="0 0 0 0 1 0 0 0 0 1 0 0 0 0 1 0 0 0 0.8 0"/>
<feBlend mode="normal" in2="BackgroundImageFix" result="effect1_dropShadow_132_54"/>
<feBlend mode="normal" in="SourceGraphic" in2="effect1_dropShadow_132_54" result="shape"/>
</filter>
</defs>
</svg>
